<svg width="52" height="52" viewBox="0 0 52 52" fill="none" xmlns="http://www.w3.org/2000/svg">
<circle cx="26" cy="26" r="26" fill="#898989"/>
<path d="M34.3082 9H29.9811C25.1348 9 22.0193 12.2019 22.0193 17.1779V20.9423H17.6923C17.3028 20.9423 16.9999 21.2452 16.9999 21.6346V27.0865C16.9999 27.4759 17.3028 27.7788 17.6923 27.7788H22.0193V41.5816C22.0193 41.971 22.3222 42.2739 22.7117 42.2739H28.3801C28.7696 42.2739 29.0725 41.971 29.0725 41.5816V27.7788H34.1351C34.5246 27.7788 34.8275 27.4759 34.8275 27.0865V21.6346C34.8275 21.4615 34.7409 21.2884 34.6111 21.1586C34.4813 21.0288 34.3082 20.9423 34.1351 20.9423H29.0292V17.7404C29.0292 16.1827 29.3754 15.4038 31.4091 15.4038H34.3082C34.6977 15.4038 35.0005 15.1009 35.0005 14.7115V9.69231C35.0005 9.30288 34.6977 9 34.3082 9Z" fill="white"/>
</svg>
