<svg width="52" height="52" viewBox="0 0 52 52" fill="none" xmlns="http://www.w3.org/2000/svg">
<circle cx="26" cy="26" r="26" fill="#898989"/>
<path d="M7.56017 25.4239L14.9326 28.1847L17.7855 37.4051C17.9722 37.9947 18.6921 38.2092 19.1587 37.8205L23.2648 34.4567C23.6915 34.1082 24.3047 34.0814 24.758 34.4165L32.1704 39.8308C32.677 40.206 33.3969 39.9246 33.5302 39.3081L38.9828 13.0541C39.1162 12.3707 38.4629 11.8078 37.823 12.0624L7.56017 23.7889C6.8136 24.0838 6.8136 25.1425 7.56017 25.4239ZM17.3323 26.7105L31.7438 17.7849C31.9971 17.6241 32.2637 17.9726 32.0504 18.187L20.1586 29.297C19.7453 29.6857 19.4653 30.2083 19.3987 30.7846L18.9987 33.8C18.9454 34.202 18.3855 34.2422 18.2655 33.8536L16.7057 28.3455C16.519 27.729 16.7857 27.0589 17.3323 26.7105Z" fill="white"/>
</svg>
