<svg width="52" height="52" viewBox="0 0 52 52" fill="none" xmlns="http://www.w3.org/2000/svg">
<circle cx="26" cy="26" r="26" fill="#898989"/>
<path d="M35.9886 33.8861H34.0997V32.8C34.0997 32.3278 34.4775 31.9028 34.997 31.9028H35.1386C35.6108 31.9028 36.0358 32.2806 36.0358 32.8L35.9886 33.8861ZM28.9526 31.525C28.4804 31.525 28.1026 31.8556 28.1026 32.2333V37.5222C28.1026 37.9 28.4804 38.2306 28.9526 38.2306C29.4248 38.2306 29.8026 37.9 29.8026 37.5222V32.2333C29.8498 31.8556 29.4248 31.525 28.9526 31.525ZM40.333 28.5972V38.6083C40.333 41.0167 38.2553 43 35.7053 43H16.6277C14.0778 43 12 41.0167 12 38.6083V28.5972C12 26.1889 14.0778 24.2056 16.6277 24.2056H35.7053C38.2553 24.2056 40.333 26.1889 40.333 28.5972ZM17.9027 39.6944V29.1639H20.2638V27.6056H13.9833V29.1639H15.9666V39.6944H17.9027ZM24.986 30.7222H23.0027V36.3889C23.0027 37.1917 23.0499 37.6167 23.0027 37.7583C22.861 38.1833 22.1054 38.6556 21.8221 37.8056C21.7749 37.6639 21.8221 37.1917 21.8221 36.4361V30.7694H19.886V36.3417C19.886 37.1917 19.886 37.8528 19.886 38.1361C19.9332 38.6556 19.9332 39.2694 20.4055 39.6C21.3027 40.2611 23.0027 39.5056 23.4276 38.6083V39.7889H25.0332L24.986 30.7222ZM31.3137 37.1917V32.5167C31.3137 30.7222 29.9915 29.6361 28.1498 31.1V27.6056H26.1665V39.6472L27.772 39.6L27.9137 38.8444C29.9915 40.7806 31.3137 39.4583 31.3137 37.1917ZM37.4525 36.5778H35.9886C35.9886 36.625 35.9886 36.7194 35.9886 36.7667V37.5694C35.9886 37.9944 35.6108 38.3722 35.1858 38.3722H34.9025C34.4775 38.3722 34.0997 37.9944 34.0997 37.5694V35.4444H37.4997V34.1694C37.4997 33.225 37.4525 32.3278 37.4053 31.7611C37.1692 30.0611 34.8081 29.825 33.6275 30.675C33.2498 30.9583 32.9664 31.2889 32.8248 31.8083C32.6359 32.2806 32.5887 32.9417 32.5887 33.7917V36.5778C32.4942 41.2056 38.1136 40.5444 37.4525 36.5778ZM29.897 21.3722C29.9915 21.6083 30.1331 21.7972 30.3692 21.9861C30.5581 22.1278 30.8414 22.2222 31.172 22.2222C31.4553 22.2222 31.6914 22.1278 31.9275 21.9861C32.1637 21.8444 32.3525 21.6083 32.4942 21.2778L32.447 22.0333H34.6664V12.6833H32.9192V19.9556C32.9192 20.3333 32.5887 20.6639 32.2109 20.6639C31.8331 20.6639 31.5026 20.3333 31.5026 19.9556V12.6833H29.7081V18.9639C29.7081 19.7667 29.7081 20.2861 29.7554 20.5694C29.7081 20.8528 29.8026 21.1361 29.897 21.3722ZM23.2388 16.0833C23.2388 15.1861 23.3332 14.4778 23.4749 13.9583C23.6165 13.4861 23.8526 13.0611 24.2776 12.7778C24.6554 12.4944 25.1748 12.3056 25.7887 12.3056C26.3082 12.3056 26.7332 12.4 27.1109 12.5889C27.4887 12.7778 27.772 13.0611 27.9609 13.3444C28.1498 13.675 28.2915 14.0056 28.3859 14.3361C28.4804 14.6667 28.4804 15.1861 28.4804 15.8472V18.2083C28.4804 19.0583 28.4331 19.7194 28.3859 20.0972C28.3387 20.5222 28.197 20.9 27.9609 21.2306C27.7248 21.5611 27.4415 21.8444 27.1109 21.9861C26.7804 22.175 26.3554 22.2222 25.9304 22.2222C25.411 22.2222 24.986 22.175 24.6554 21.9861C24.3249 21.8444 24.0415 21.6083 23.8526 21.325C23.6638 21.0417 23.5221 20.6639 23.4276 20.2861C23.3332 19.8611 23.286 19.2472 23.286 18.4444V16.0833H23.2388ZM24.9387 19.8139C24.9387 20.3333 25.3165 20.7583 25.836 20.7583C26.3082 20.7583 26.6859 20.3333 26.6859 19.8139V14.8083C26.6859 14.2889 26.3082 13.8639 25.836 13.8639C25.3637 13.8639 24.9387 14.2889 24.9387 14.8083V19.8139ZM18.8471 22.3167H20.9249V15.1389L23.3804 9H21.1138L19.7916 13.5333L18.5166 9H16.25L18.8471 15.1389V22.3167Z" fill="white"/>
</svg>
