<svg width="52" height="52" viewBox="0 0 52 52" fill="none" xmlns="http://www.w3.org/2000/svg">
<circle cx="26" cy="26" r="26" fill="#898989"/>
<path d="M42.8116 34.0171C42.7556 33.9333 42.7277 33.8495 42.6997 33.7937C42.0846 32.7045 40.9382 31.3639 39.2326 29.772L39.2046 29.7441L39.1766 29.7162L39.1487 29.6882H39.1207C38.3378 28.9342 37.8625 28.4594 37.6388 28.2081C37.2753 27.7333 37.1634 27.2306 37.3871 26.7279C37.5269 26.3648 38.0862 25.5549 39.0368 24.354C39.5401 23.7116 39.9316 23.2089 40.2112 22.8179C42.3083 20.0251 43.231 18.2377 42.9514 17.4557L42.8395 17.2882C42.7556 17.1765 42.5879 17.0647 42.2803 16.981C41.9727 16.8972 41.5813 16.8692 41.1059 16.9251L35.8772 16.953C35.7934 16.9251 35.6815 16.9251 35.5137 16.953C35.346 16.981 35.2621 17.0089 35.2621 17.0089L35.1782 17.0647L35.0943 17.1206C35.0384 17.1485 34.9545 17.2323 34.8986 17.3161C34.8147 17.3999 34.7588 17.5116 34.7308 17.6233C34.1716 19.1035 33.5006 20.444 32.7736 21.7287C32.3262 22.4828 31.9068 23.1251 31.5433 23.6837C31.1798 24.2423 30.8443 24.6333 30.5926 24.9125C30.341 25.1639 30.1173 25.3873 29.8936 25.527C29.6979 25.6945 29.5301 25.7504 29.4182 25.7225C29.3064 25.6945 29.1946 25.6666 29.1107 25.6387C28.9429 25.527 28.8031 25.3873 28.6913 25.1918C28.5794 24.9963 28.5235 24.7729 28.4676 24.4936C28.4396 24.2143 28.4117 23.963 28.4117 23.7675C28.4117 23.572 28.4117 23.2648 28.4117 22.9017C28.4117 22.5387 28.4396 22.2594 28.4396 22.1477C28.4396 21.6729 28.4396 21.1981 28.4676 20.6395C28.4955 20.1089 28.4955 19.6621 28.5235 19.3548C28.5235 19.0476 28.5515 18.7125 28.5515 18.3494C28.5515 17.9864 28.5235 17.735 28.4955 17.5116C28.4676 17.3161 28.3837 17.1206 28.2998 16.9251C28.2159 16.7296 28.0761 16.59 27.9363 16.4783C27.7685 16.3665 27.5728 16.2828 27.3212 16.2269C26.6781 16.0873 25.8672 16.0035 24.8606 16.0035C22.5678 15.9755 21.1418 16.1152 20.4707 16.4503C20.2191 16.59 19.9954 16.7575 19.7717 17.0089C19.548 17.2882 19.5201 17.4278 19.6878 17.4557C20.4148 17.5674 20.9461 17.8188 21.2257 18.2377L21.3375 18.4611C21.4214 18.6287 21.5053 18.908 21.5892 19.299C21.673 19.69 21.729 20.1368 21.7569 20.6395C21.8129 21.5332 21.8129 22.2873 21.7569 22.9017C21.701 23.5441 21.6451 24.0188 21.5892 24.3819C21.5332 24.745 21.4494 25.0243 21.3375 25.2477C21.2257 25.4711 21.1418 25.6107 21.1138 25.6387C21.0859 25.6945 21.0579 25.7225 21.0299 25.7225C20.8622 25.7783 20.6944 25.8062 20.5266 25.8062C20.3589 25.8062 20.1632 25.7225 19.9115 25.5549C19.6599 25.3873 19.4082 25.1639 19.1566 24.8567C18.9049 24.5495 18.5973 24.1585 18.2618 23.5999C17.9263 23.0693 17.5907 22.4269 17.2552 21.7008L16.9756 21.1702C16.7799 20.835 16.5562 20.3323 16.2207 19.69C15.9131 19.0476 15.6335 18.4053 15.3818 17.8188C15.2979 17.5674 15.1302 17.372 14.9344 17.2323L14.8506 17.1765C14.7946 17.1206 14.6828 17.0647 14.571 17.0089C14.4312 16.953 14.2913 16.9251 14.1515 16.8972L9.17448 16.9251C8.67119 16.9251 8.30769 17.0368 8.13993 17.2602L8.05604 17.372C8.02808 17.4278 8.00012 17.5395 8.00012 17.6512C8.00012 17.7909 8.02808 17.9584 8.11197 18.1539C8.83895 19.8576 9.62186 21.5053 10.4887 23.0972C11.3554 24.6891 12.0824 25.9738 12.7255 26.9513C13.3686 27.9288 14.0117 28.8504 14.6548 29.6882C15.2979 30.554 15.7453 31.1126 15.969 31.336C16.1927 31.5874 16.3605 31.7549 16.4723 31.8946L16.9197 32.3414C17.1993 32.6207 17.6467 32.9838 18.2059 33.3748C18.7651 33.7937 19.4082 34.1847 20.0793 34.5757C20.7783 34.9667 21.5612 35.3018 22.4839 35.5532C23.4066 35.8045 24.2734 35.9162 25.1402 35.8604H27.2373C27.6567 35.8324 27.9922 35.6928 28.2159 35.4694L28.2998 35.3856C28.3557 35.3018 28.3837 35.1901 28.4396 35.0504C28.4955 34.9108 28.4955 34.7432 28.4955 34.5477C28.4955 34.0171 28.5235 33.5423 28.6074 33.1234C28.6913 32.7045 28.8031 32.3973 28.9149 32.1739C29.0268 31.9504 29.1666 31.7829 29.3064 31.6432C29.4462 31.5036 29.5581 31.4198 29.614 31.3919C29.6699 31.3639 29.7258 31.336 29.7538 31.336C30.0334 31.2522 30.3969 31.336 30.7883 31.6153C31.1798 31.8946 31.5433 32.2576 31.9068 32.6766C32.2423 33.0955 32.6617 33.5703 33.165 34.1009C33.6404 34.6315 34.0877 35.0225 34.4512 35.2739L34.8147 35.4973C35.0664 35.6369 35.3739 35.7766 35.7654 35.8883C36.1568 36 36.4924 36.0279 36.772 35.9721L41.4415 35.8883C41.8889 35.8883 42.2523 35.8045 42.504 35.6649C42.7556 35.5252 42.9234 35.3577 42.9514 35.1622C43.0073 34.9667 43.0073 34.7712 42.9514 34.5477C42.8954 34.2685 42.8675 34.1009 42.8116 34.0171Z" fill="white"/>
</svg>
